<svg xmlns="http://www.w3.org/2000/svg" xmlns:xlink="http://www.w3.org/1999/xlink" width="1920" zoomAndPan="magnify" viewBox="0 0 1440 809.999993" height="1080" preserveAspectRatio="xMidYMid meet" version="1.0"><defs><g/><clipPath id="22fdda3d2b"><rect x="0" width="708" y="0" height="379"/></clipPath><clipPath id="b99f129865"><path d="M 114 360 L 1379.078125 360 L 1379.078125 442.441406 L 114 442.441406 Z M 114 360 " clip-rule="nonzero"/></clipPath><clipPath id="b54b243cbe"><rect x="0" width="1266" y="0" height="83"/></clipPath><clipPath id="2468a83028"><rect x="0" width="1380" y="0" height="443"/></clipPath></defs><g transform="matrix(1, 0, 0, 1, 17, 165)"><g clip-path="url(#2468a83028)"><g transform="matrix(1, 0, 0, 1, 653, 49)"><g clip-path="url(#22fdda3d2b)"><g fill="#ffffff" fill-opacity="1"><g transform="translate(0.524816, 272.302387)"><g><path d="M 224.40625 0 L 212.609375 -147.890625 L 211.09375 -147.890625 L 159.984375 -1.515625 L 126.109375 -1.515625 L 75 -147.890625 L 73.5 -147.890625 L 61.703125 0 L 4.84375 0 L 27.21875 -249.515625 L 87.703125 -249.515625 L 143.046875 -105.546875 L 198.40625 -249.515625 L 258.890625 -249.515625 L 281.265625 0 Z M 224.40625 0 "/></g></g></g><g fill="#ffffff" fill-opacity="1"><g transform="translate(258.199873, 272.302387)"><g><path d="M 28.71875 -19.203125 C 14.207031 -35.035156 6.953125 -54.441406 6.953125 -77.421875 C 6.953125 -100.410156 14.207031 -119.867188 28.71875 -135.796875 C 43.238281 -151.722656 61.691406 -159.6875 84.078125 -159.6875 C 104.640625 -159.6875 121.578125 -153.234375 134.890625 -140.328125 L 134.890625 -155.15625 L 188.421875 -155.15625 L 188.421875 0 L 135.484375 0 L 135.484375 -17.546875 L 134.890625 -17.546875 C 121.578125 -2.828125 104.640625 4.53125 84.078125 4.53125 C 61.691406 4.53125 43.238281 -3.378906 28.71875 -19.203125 Z M 74.25 -103.734375 C 67.289062 -96.878906 63.8125 -88.109375 63.8125 -77.421875 C 63.8125 -66.734375 67.140625 -58.007812 73.796875 -51.25 C 80.453125 -44.5 89.222656 -41.125 100.109375 -41.125 C 110.585938 -41.125 119.203125 -44.550781 125.953125 -51.40625 C 132.710938 -58.269531 136.09375 -66.941406 136.09375 -77.421875 C 136.09375 -88.109375 132.613281 -96.878906 125.65625 -103.734375 C 118.707031 -110.585938 110.191406 -114.015625 100.109375 -114.015625 C 89.828125 -114.015625 81.207031 -110.585938 74.25 -103.734375 Z M 74.25 -103.734375 "/></g></g></g><g fill="#ffffff" fill-opacity="1"><g transform="translate(436.334401, 272.302387)"><g><path d="M 27.21875 -155.15625 L 27.21875 -212.921875 L 80.75 -212.921875 L 80.75 -155.15625 L 113.421875 -155.15625 L 113.421875 -114.328125 L 80.75 -114.328125 L 80.75 -65.03125 C 80.75 -50.707031 84.78125 -43.546875 92.84375 -43.546875 C 94.863281 -43.546875 96.984375 -43.945312 99.203125 -44.75 C 101.421875 -45.5625 103.132812 -46.375 104.34375 -47.1875 L 106.15625 -48.390625 L 119.46875 -5.140625 C 107.96875 1.304688 94.859375 4.53125 80.140625 4.53125 C 70.066406 4.53125 61.398438 2.769531 54.140625 -0.75 C 46.878906 -4.28125 41.382812 -9.019531 37.65625 -14.96875 C 33.925781 -20.914062 31.253906 -27.164062 29.640625 -33.71875 C 28.023438 -40.269531 27.21875 -47.273438 27.21875 -54.734375 L 27.21875 -114.328125 L 4.84375 -114.328125 L 4.84375 -155.15625 Z M 27.21875 -155.15625 "/></g></g></g><g fill="#ffffff" fill-opacity="1"><g transform="translate(527.367361, 272.302387)"><g><path d="M 175.109375 -70.171875 L 62.609375 -70.171875 C 62.609375 -59.273438 66.132812 -51.207031 73.1875 -45.96875 C 80.25 -40.726562 87.910156 -38.109375 96.171875 -38.109375 C 104.847656 -38.109375 111.703125 -39.265625 116.734375 -41.578125 C 121.773438 -43.898438 127.523438 -48.488281 133.984375 -55.34375 L 172.6875 -35.984375 C 156.5625 -8.972656 129.75 4.53125 92.25 4.53125 C 68.851562 4.53125 48.785156 -3.476562 32.046875 -19.5 C 15.316406 -35.53125 6.953125 -54.835938 6.953125 -77.421875 C 6.953125 -100.003906 15.316406 -119.359375 32.046875 -135.484375 C 48.785156 -151.617188 68.851562 -159.6875 92.25 -159.6875 C 116.84375 -159.6875 136.847656 -152.578125 152.265625 -138.359375 C 167.691406 -124.148438 175.40625 -103.835938 175.40625 -77.421875 C 175.40625 -73.796875 175.304688 -71.378906 175.109375 -70.171875 Z M 64.109375 -99.796875 L 123.09375 -99.796875 C 121.882812 -107.867188 118.707031 -114.070312 113.5625 -118.40625 C 108.425781 -122.738281 101.820312 -124.90625 93.75 -124.90625 C 84.882812 -124.90625 77.828125 -122.585938 72.578125 -117.953125 C 67.335938 -113.316406 64.515625 -107.265625 64.109375 -99.796875 Z M 64.109375 -99.796875 "/></g></g></g></g></g><g clip-path="url(#b99f129865)"><g transform="matrix(1, 0, 0, 1, 114, 360)"><g clip-path="url(#b54b243cbe)"><g fill="#ffffff" fill-opacity="1"><g transform="translate(1.6465, 61.840054)"><g><path d="M 24.640625 -47.515625 C 27.035156 -47.515625 29.25 -46.867188 31.28125 -45.578125 C 33.320312 -44.285156 34.941406 -42.53125 36.140625 -40.3125 C 37.335938 -38.09375 37.9375 -35.648438 37.9375 -32.984375 C 37.9375 -30.316406 37.335938 -27.847656 36.140625 -25.578125 C 34.941406 -23.316406 33.320312 -21.53125 31.28125 -20.21875 C 29.25 -18.914062 27.035156 -18.265625 24.640625 -18.265625 L 11.875 -18.265625 L 11.875 -3.265625 C 11.875 -2.359375 11.578125 -1.585938 10.984375 -0.953125 C 10.398438 -0.316406 9.65625 0 8.75 0 C 7.800781 0 7.046875 -0.300781 6.484375 -0.90625 C 5.921875 -1.519531 5.640625 -2.304688 5.640625 -3.265625 L 5.640625 -44.25 C 5.640625 -45.15625 5.953125 -45.925781 6.578125 -46.5625 C 7.210938 -47.195312 7.984375 -47.515625 8.890625 -47.515625 Z M 24.640625 -24.4375 C 25.859375 -24.4375 26.988281 -24.832031 28.03125 -25.625 C 29.070312 -26.414062 29.894531 -27.46875 30.5 -28.78125 C 31.113281 -30.09375 31.421875 -31.492188 31.421875 -32.984375 C 31.421875 -35.296875 30.753906 -37.253906 29.421875 -38.859375 C 28.085938 -40.460938 26.492188 -41.265625 24.640625 -41.265625 L 11.875 -41.265625 L 11.875 -24.4375 Z M 24.640625 -24.4375 "/></g></g></g><g fill="#ffffff" fill-opacity="1"><g transform="translate(58.093694, 61.840054)"><g><path d="M 36.046875 -19.140625 C 35.992188 -18.328125 35.648438 -17.632812 35.015625 -17.0625 C 34.390625 -16.5 33.644531 -16.21875 32.78125 -16.21875 L 8.890625 -16.21875 C 9.203125 -12.914062 10.457031 -10.269531 12.65625 -8.28125 C 14.851562 -6.289062 17.535156 -5.296875 20.703125 -5.296875 C 22.867188 -5.296875 24.628906 -5.609375 25.984375 -6.234375 C 27.347656 -6.867188 28.550781 -7.6875 29.59375 -8.6875 C 30.269531 -9.09375 30.925781 -9.296875 31.5625 -9.296875 C 32.332031 -9.296875 32.976562 -9.023438 33.5 -8.484375 C 34.019531 -7.941406 34.28125 -7.304688 34.28125 -6.578125 C 34.28125 -5.628906 33.828125 -4.769531 32.921875 -4 C 31.609375 -2.6875 29.863281 -1.578125 27.6875 -0.671875 C 25.519531 0.222656 23.304688 0.671875 21.046875 0.671875 C 17.378906 0.671875 14.148438 -0.09375 11.359375 -1.625 C 8.578125 -3.164062 6.425781 -5.316406 4.90625 -8.078125 C 3.394531 -10.835938 2.640625 -13.957031 2.640625 -17.4375 C 2.640625 -21.238281 3.421875 -24.578125 4.984375 -27.453125 C 6.546875 -30.328125 8.601562 -32.53125 11.15625 -34.0625 C 13.71875 -35.601562 16.46875 -36.375 19.40625 -36.375 C 22.300781 -36.375 25.015625 -35.628906 27.546875 -34.140625 C 30.085938 -32.648438 32.125 -30.59375 33.65625 -27.96875 C 35.195312 -25.34375 35.992188 -22.398438 36.046875 -19.140625 Z M 19.40625 -30.40625 C 16.875 -30.40625 14.679688 -29.691406 12.828125 -28.265625 C 10.972656 -26.835938 9.75 -24.632812 9.15625 -21.65625 L 29.1875 -21.65625 L 29.1875 -22.1875 C 28.957031 -24.59375 27.878906 -26.5625 25.953125 -28.09375 C 24.035156 -29.632812 21.851562 -30.40625 19.40625 -30.40625 Z M 19.40625 -30.40625 "/></g></g></g><g fill="#ffffff" fill-opacity="1"><g transform="translate(112.506076, 61.840054)"><g><path d="M 22.53125 -36.375 C 23.707031 -36.375 24.722656 -36.066406 25.578125 -35.453125 C 26.441406 -34.847656 26.875 -34.09375 26.875 -33.1875 C 26.875 -32.101562 26.59375 -31.273438 26.03125 -30.703125 C 25.46875 -30.140625 24.773438 -29.859375 23.953125 -29.859375 C 23.546875 -29.859375 22.9375 -29.992188 22.125 -30.265625 C 21.175781 -30.585938 20.429688 -30.75 19.890625 -30.75 C 18.484375 -30.75 17.113281 -30.257812 15.78125 -29.28125 C 14.445312 -28.3125 13.359375 -26.976562 12.515625 -25.28125 C 11.679688 -23.582031 11.265625 -21.691406 11.265625 -19.609375 L 11.265625 -3.265625 C 11.265625 -2.359375 10.957031 -1.585938 10.34375 -0.953125 C 9.738281 -0.316406 8.960938 0 8.015625 0 C 7.054688 0 6.28125 -0.300781 5.6875 -0.90625 C 5.101562 -1.519531 4.8125 -2.304688 4.8125 -3.265625 L 4.8125 -32.3125 C 4.8125 -33.21875 5.117188 -33.984375 5.734375 -34.609375 C 6.347656 -35.242188 7.109375 -35.5625 8.015625 -35.5625 C 8.960938 -35.5625 9.738281 -35.242188 10.34375 -34.609375 C 10.957031 -33.984375 11.265625 -33.21875 11.265625 -32.3125 L 11.265625 -28.84375 C 12.265625 -31.0625 13.757812 -32.859375 15.75 -34.234375 C 17.738281 -35.617188 20 -36.332031 22.53125 -36.375 Z M 22.53125 -36.375 "/></g></g></g><g fill="#ffffff" fill-opacity="1"><g transform="translate(156.269652, 61.840054)"><g><path d="M 2.78125 -5.5625 C 2.375 -6.195312 2.171875 -6.804688 2.171875 -7.390625 C 2.171875 -8.296875 2.644531 -9.066406 3.59375 -9.703125 C 4.050781 -10.023438 4.570312 -10.1875 5.15625 -10.1875 C 5.96875 -10.1875 6.710938 -9.84375 7.390625 -9.15625 C 8.753906 -7.625 10.21875 -6.472656 11.78125 -5.703125 C 13.34375 -4.929688 15.207031 -4.546875 17.375 -4.546875 C 19.09375 -4.585938 20.609375 -4.984375 21.921875 -5.734375 C 23.234375 -6.484375 23.890625 -7.691406 23.890625 -9.359375 C 23.890625 -10.898438 23.222656 -12.078125 21.890625 -12.890625 C 20.554688 -13.710938 18.597656 -14.460938 16.015625 -15.140625 C 13.484375 -15.816406 11.378906 -16.523438 9.703125 -17.265625 C 8.023438 -18.015625 6.609375 -19.101562 5.453125 -20.53125 C 4.304688 -21.957031 3.734375 -23.820312 3.734375 -26.125 C 3.734375 -28.164062 4.304688 -29.953125 5.453125 -31.484375 C 6.609375 -33.023438 8.148438 -34.222656 10.078125 -35.078125 C 12.003906 -35.941406 14.097656 -36.375 16.359375 -36.375 C 18.523438 -36.375 20.679688 -35.96875 22.828125 -35.15625 C 24.984375 -34.34375 26.738281 -33.097656 28.09375 -31.421875 C 28.644531 -30.785156 28.921875 -30.128906 28.921875 -29.453125 C 28.921875 -28.734375 28.554688 -28.035156 27.828125 -27.359375 C 27.378906 -26.953125 26.8125 -26.75 26.125 -26.75 C 25.3125 -26.75 24.65625 -27.019531 24.15625 -27.5625 C 23.207031 -28.644531 22.039062 -29.476562 20.65625 -30.0625 C 19.28125 -30.65625 17.757812 -30.953125 16.09375 -30.953125 C 14.363281 -30.953125 12.898438 -30.597656 11.703125 -29.890625 C 10.503906 -29.191406 9.90625 -28.003906 9.90625 -26.328125 C 9.957031 -24.742188 10.648438 -23.566406 11.984375 -22.796875 C 13.316406 -22.035156 15.363281 -21.289062 18.125 -20.5625 C 20.519531 -19.925781 22.507812 -19.242188 24.09375 -18.515625 C 25.675781 -17.796875 27.007812 -16.722656 28.09375 -15.296875 C 29.1875 -13.878906 29.734375 -12.015625 29.734375 -9.703125 C 29.734375 -7.578125 29.117188 -5.734375 27.890625 -4.171875 C 26.671875 -2.609375 25.078125 -1.410156 23.109375 -0.578125 C 21.140625 0.253906 19.046875 0.671875 16.828125 0.671875 C 13.984375 0.671875 11.347656 0.175781 8.921875 -0.8125 C 6.503906 -1.8125 4.457031 -3.394531 2.78125 -5.5625 Z M 2.78125 -5.5625 "/></g></g></g><g fill="#ffffff" fill-opacity="1"><g transform="translate(204.374124, 61.840054)"><g><path d="M 38.484375 -17.78125 C 38.484375 -14.25 37.691406 -11.082031 36.109375 -8.28125 C 34.523438 -5.476562 32.363281 -3.285156 29.625 -1.703125 C 26.882812 -0.117188 23.863281 0.671875 20.5625 0.671875 C 17.257812 0.671875 14.238281 -0.117188 11.5 -1.703125 C 8.757812 -3.285156 6.597656 -5.476562 5.015625 -8.28125 C 3.429688 -11.082031 2.640625 -14.25 2.640625 -17.78125 C 2.640625 -21.3125 3.429688 -24.5 5.015625 -27.34375 C 6.597656 -30.195312 8.757812 -32.414062 11.5 -34 C 14.238281 -35.582031 17.257812 -36.375 20.5625 -36.375 C 23.863281 -36.375 26.882812 -35.582031 29.625 -34 C 32.363281 -32.414062 34.523438 -30.195312 36.109375 -27.34375 C 37.691406 -24.5 38.484375 -21.3125 38.484375 -17.78125 Z M 32.03125 -17.78125 C 32.03125 -20.226562 31.519531 -22.410156 30.5 -24.328125 C 29.488281 -26.253906 28.109375 -27.75 26.359375 -28.8125 C 24.617188 -29.875 22.6875 -30.40625 20.5625 -30.40625 C 18.4375 -30.40625 16.503906 -29.875 14.765625 -28.8125 C 13.023438 -27.75 11.644531 -26.253906 10.625 -24.328125 C 9.601562 -22.410156 9.09375 -20.226562 9.09375 -17.78125 C 9.09375 -15.382812 9.601562 -13.234375 10.625 -11.328125 C 11.644531 -9.429688 13.023438 -7.953125 14.765625 -6.890625 C 16.503906 -5.828125 18.4375 -5.296875 20.5625 -5.296875 C 22.6875 -5.296875 24.617188 -5.828125 26.359375 -6.890625 C 28.109375 -7.953125 29.488281 -9.429688 30.5 -11.328125 C 31.519531 -13.234375 32.03125 -15.382812 32.03125 -17.78125 Z M 32.03125 -17.78125 "/></g></g></g><g fill="#ffffff" fill-opacity="1"><g transform="translate(261.228265, 61.840054)"><g><path d="M 22.9375 -36.375 C 31.082031 -36.375 35.15625 -31.488281 35.15625 -21.71875 L 35.15625 -3.265625 C 35.15625 -2.359375 34.847656 -1.585938 34.234375 -0.953125 C 33.628906 -0.316406 32.851562 0 31.90625 0 C 31 0 30.238281 -0.316406 29.625 -0.953125 C 29.019531 -1.585938 28.71875 -2.359375 28.71875 -3.265625 L 28.71875 -21.65625 C 28.71875 -24.320312 28.101562 -26.445312 26.875 -28.03125 C 25.65625 -29.613281 23.664062 -30.40625 20.90625 -30.40625 C 19.09375 -30.40625 17.453125 -30.007812 15.984375 -29.21875 C 14.515625 -28.425781 13.359375 -27.363281 12.515625 -26.03125 C 11.679688 -24.695312 11.265625 -23.238281 11.265625 -21.65625 L 11.265625 -3.265625 C 11.265625 -2.359375 10.957031 -1.585938 10.34375 -0.953125 C 9.738281 -0.316406 8.960938 0 8.015625 0 C 7.054688 0 6.28125 -0.300781 5.6875 -0.90625 C 5.101562 -1.519531 4.8125 -2.304688 4.8125 -3.265625 L 4.8125 -32.3125 C 4.8125 -33.21875 5.117188 -33.984375 5.734375 -34.609375 C 6.347656 -35.242188 7.109375 -35.5625 8.015625 -35.5625 C 8.960938 -35.5625 9.738281 -35.242188 10.34375 -34.609375 C 10.957031 -33.984375 11.265625 -33.21875 11.265625 -32.3125 L 11.265625 -29.9375 C 12.441406 -31.738281 14.082031 -33.257812 16.1875 -34.5 C 18.289062 -35.75 20.539062 -36.375 22.9375 -36.375 Z M 22.9375 -36.375 "/></g></g></g><g fill="#ffffff" fill-opacity="1"><g transform="translate(316.929364, 61.840054)"><g><path d="M 33.671875 -36.046875 C 34.617188 -36.046875 35.394531 -35.738281 36 -35.125 C 36.613281 -34.507812 36.921875 -33.707031 36.921875 -32.71875 L 36.921875 -3.265625 C 36.921875 -2.359375 36.613281 -1.585938 36 -0.953125 C 35.394531 -0.316406 34.617188 0 33.671875 0 C 32.710938 0 31.9375 -0.300781 31.34375 -0.90625 C 30.757812 -1.519531 30.46875 -2.304688 30.46875 -3.265625 L 30.46875 -5.015625 C 29.300781 -3.429688 27.695312 -2.085938 25.65625 -0.984375 C 23.625 0.117188 21.429688 0.671875 19.078125 0.671875 C 15.992188 0.671875 13.195312 -0.117188 10.6875 -1.703125 C 8.175781 -3.285156 6.207031 -5.488281 4.78125 -8.3125 C 3.351562 -11.144531 2.640625 -14.320312 2.640625 -17.84375 C 2.640625 -21.375 3.351562 -24.550781 4.78125 -27.375 C 6.207031 -30.207031 8.164062 -32.414062 10.65625 -34 C 13.144531 -35.582031 15.882812 -36.375 18.875 -36.375 C 21.269531 -36.375 23.492188 -35.875 25.546875 -34.875 C 27.609375 -33.882812 29.25 -32.625 30.46875 -31.09375 L 30.46875 -32.71875 C 30.46875 -33.664062 30.757812 -34.457031 31.34375 -35.09375 C 31.9375 -35.726562 32.710938 -36.046875 33.671875 -36.046875 Z M 19.8125 -5.296875 C 21.945312 -5.296875 23.835938 -5.835938 25.484375 -6.921875 C 27.140625 -8.003906 28.429688 -9.492188 29.359375 -11.390625 C 30.285156 -13.296875 30.75 -15.445312 30.75 -17.84375 C 30.75 -20.195312 30.285156 -22.320312 29.359375 -24.21875 C 28.429688 -26.125 27.140625 -27.628906 25.484375 -28.734375 C 23.835938 -29.847656 21.945312 -30.40625 19.8125 -30.40625 C 17.6875 -30.40625 15.796875 -29.863281 14.140625 -28.78125 C 12.492188 -27.695312 11.207031 -26.203125 10.28125 -24.296875 C 9.351562 -22.398438 8.890625 -20.25 8.890625 -17.84375 C 8.890625 -15.445312 9.351562 -13.296875 10.28125 -11.390625 C 11.207031 -9.492188 12.492188 -8.003906 14.140625 -6.921875 C 15.796875 -5.835938 17.6875 -5.296875 19.8125 -5.296875 Z M 19.8125 -5.296875 "/></g></g></g><g fill="#ffffff" fill-opacity="1"><g transform="translate(374.326127, 61.840054)"><g><path d="M 11.8125 -3.265625 C 11.8125 -2.359375 11.492188 -1.585938 10.859375 -0.953125 C 10.222656 -0.316406 9.453125 0 8.546875 0 C 7.640625 0 6.878906 -0.316406 6.265625 -0.953125 C 5.660156 -1.585938 5.359375 -2.359375 5.359375 -3.265625 L 5.359375 -46.96875 C 5.359375 -47.875 5.675781 -48.644531 6.3125 -49.28125 C 6.945312 -49.914062 7.71875 -50.234375 8.625 -50.234375 C 9.53125 -50.234375 10.285156 -49.914062 10.890625 -49.28125 C 11.503906 -48.644531 11.8125 -47.875 11.8125 -46.96875 Z M 11.8125 -3.265625 "/></g></g></g><g fill="#ffffff" fill-opacity="1"><g transform="translate(407.237502, 61.840054)"><g><path d="M 10.921875 -3.265625 C 10.921875 -2.359375 10.613281 -1.585938 10 -0.953125 C 9.394531 -0.316406 8.617188 0 7.671875 0 C 6.765625 0 6.003906 -0.316406 5.390625 -0.953125 C 4.785156 -1.585938 4.484375 -2.359375 4.484375 -3.265625 L 4.484375 -32.640625 C 4.484375 -33.546875 4.785156 -34.316406 5.390625 -34.953125 C 6.003906 -35.585938 6.765625 -35.90625 7.671875 -35.90625 C 8.617188 -35.90625 9.394531 -35.585938 10 -34.953125 C 10.613281 -34.316406 10.921875 -33.546875 10.921875 -32.640625 Z M 7.671875 -40.390625 C 6.359375 -40.390625 5.421875 -40.625 4.859375 -41.09375 C 4.296875 -41.570312 4.015625 -42.332031 4.015625 -43.375 L 4.015625 -44.453125 C 4.015625 -45.546875 4.316406 -46.316406 4.921875 -46.765625 C 5.535156 -47.210938 6.476562 -47.4375 7.75 -47.4375 C 9.007812 -47.4375 9.921875 -47.195312 10.484375 -46.71875 C 11.054688 -46.25 11.34375 -45.492188 11.34375 -44.453125 L 11.34375 -43.375 C 11.34375 -42.289062 11.046875 -41.519531 10.453125 -41.0625 C 9.867188 -40.613281 8.941406 -40.390625 7.671875 -40.390625 Z M 7.671875 -40.390625 "/></g></g></g><g fill="#ffffff" fill-opacity="1"><g transform="translate(438.385414, 61.840054)"><g><path d="M 27.359375 -5.96875 C 28.210938 -5.96875 28.929688 -5.6875 29.515625 -5.125 C 30.109375 -4.5625 30.40625 -3.847656 30.40625 -2.984375 C 30.40625 -2.128906 30.109375 -1.414062 29.515625 -0.84375 C 28.929688 -0.28125 28.210938 0 27.359375 0 L 5.4375 0 C 4.570312 0 3.851562 -0.316406 3.28125 -0.953125 C 2.71875 -1.585938 2.4375 -2.242188 2.4375 -2.921875 C 2.488281 -3.503906 2.582031 -3.988281 2.71875 -4.375 C 2.851562 -4.757812 3.101562 -5.203125 3.46875 -5.703125 L 21.25 -29.453125 L 6.515625 -29.453125 C 5.648438 -29.453125 4.925781 -29.742188 4.34375 -30.328125 C 3.757812 -30.921875 3.46875 -31.648438 3.46875 -32.515625 C 3.46875 -33.367188 3.75 -34.066406 4.3125 -34.609375 C 4.875 -35.160156 5.609375 -35.4375 6.515625 -35.4375 L 27.359375 -35.4375 C 28.210938 -35.4375 28.921875 -35.117188 29.484375 -34.484375 C 30.054688 -33.847656 30.316406 -33.078125 30.265625 -32.171875 C 30.222656 -31.722656 30.144531 -31.328125 30.03125 -30.984375 C 29.914062 -30.640625 29.679688 -30.265625 29.328125 -29.859375 L 11.40625 -5.96875 Z M 27.359375 -5.96875 "/></g></g></g><g fill="#ffffff" fill-opacity="1"><g transform="translate(486.829035, 61.840054)"><g><path d="M 36.046875 -19.140625 C 35.992188 -18.328125 35.648438 -17.632812 35.015625 -17.0625 C 34.390625 -16.5 33.644531 -16.21875 32.78125 -16.21875 L 8.890625 -16.21875 C 9.203125 -12.914062 10.457031 -10.269531 12.65625 -8.28125 C 14.851562 -6.289062 17.535156 -5.296875 20.703125 -5.296875 C 22.867188 -5.296875 24.628906 -5.609375 25.984375 -6.234375 C 27.347656 -6.867188 28.550781 -7.6875 29.59375 -8.6875 C 30.269531 -9.09375 30.925781 -9.296875 31.5625 -9.296875 C 32.332031 -9.296875 32.976562 -9.023438 33.5 -8.484375 C 34.019531 -7.941406 34.28125 -7.304688 34.28125 -6.578125 C 34.28125 -5.628906 33.828125 -4.769531 32.921875 -4 C 31.609375 -2.6875 29.863281 -1.578125 27.6875 -0.671875 C 25.519531 0.222656 23.304688 0.671875 21.046875 0.671875 C 17.378906 0.671875 14.148438 -0.09375 11.359375 -1.625 C 8.578125 -3.164062 6.425781 -5.316406 4.90625 -8.078125 C 3.394531 -10.835938 2.640625 -13.957031 2.640625 -17.4375 C 2.640625 -21.238281 3.421875 -24.578125 4.984375 -27.453125 C 6.546875 -30.328125 8.601562 -32.53125 11.15625 -34.0625 C 13.71875 -35.601562 16.46875 -36.375 19.40625 -36.375 C 22.300781 -36.375 25.015625 -35.628906 27.546875 -34.140625 C 30.085938 -32.648438 32.125 -30.59375 33.65625 -27.96875 C 35.195312 -25.34375 35.992188 -22.398438 36.046875 -19.140625 Z M 19.40625 -30.40625 C 16.875 -30.40625 14.679688 -29.691406 12.828125 -28.265625 C 10.972656 -26.835938 9.75 -24.632812 9.15625 -21.65625 L 29.1875 -21.65625 L 29.1875 -22.1875 C 28.957031 -24.59375 27.878906 -26.5625 25.953125 -28.09375 C 24.035156 -29.632812 21.851562 -30.40625 19.40625 -30.40625 Z M 19.40625 -30.40625 "/></g></g></g><g fill="#ffffff" fill-opacity="1"><g transform="translate(541.241417, 61.840054)"><g><path d="M 33.671875 -50.234375 C 34.617188 -50.234375 35.394531 -49.925781 36 -49.3125 C 36.613281 -48.695312 36.921875 -47.914062 36.921875 -46.96875 L 36.921875 -3.265625 C 36.921875 -2.359375 36.613281 -1.585938 36 -0.953125 C 35.394531 -0.316406 34.617188 0 33.671875 0 C 32.710938 0 31.9375 -0.300781 31.34375 -0.90625 C 30.757812 -1.519531 30.46875 -2.304688 30.46875 -3.265625 L 30.46875 -5.15625 C 29.34375 -3.53125 27.75 -2.148438 25.6875 -1.015625 C 23.632812 0.109375 21.429688 0.671875 19.078125 0.671875 C 15.992188 0.671875 13.207031 -0.117188 10.71875 -1.703125 C 8.226562 -3.285156 6.257812 -5.488281 4.8125 -8.3125 C 3.363281 -11.144531 2.640625 -14.320312 2.640625 -17.84375 C 2.640625 -21.375 3.351562 -24.550781 4.78125 -27.375 C 6.207031 -30.207031 8.164062 -32.414062 10.65625 -34 C 13.144531 -35.582031 15.882812 -36.375 18.875 -36.375 C 21.269531 -36.375 23.484375 -35.875 25.515625 -34.875 C 27.554688 -33.882812 29.207031 -32.597656 30.46875 -31.015625 L 30.46875 -46.96875 C 30.46875 -47.914062 30.757812 -48.695312 31.34375 -49.3125 C 31.9375 -49.925781 32.710938 -50.234375 33.671875 -50.234375 Z M 19.8125 -5.296875 C 21.945312 -5.296875 23.835938 -5.835938 25.484375 -6.921875 C 27.140625 -8.003906 28.429688 -9.492188 29.359375 -11.390625 C 30.285156 -13.296875 30.75 -15.445312 30.75 -17.84375 C 30.75 -20.195312 30.285156 -22.335938 29.359375 -24.265625 C 28.429688 -26.191406 27.140625 -27.695312 25.484375 -28.78125 C 23.835938 -29.863281 21.945312 -30.40625 19.8125 -30.40625 C 17.6875 -30.40625 15.796875 -29.863281 14.140625 -28.78125 C 12.492188 -27.695312 11.207031 -26.191406 10.28125 -24.265625 C 9.351562 -22.335938 8.890625 -20.195312 8.890625 -17.84375 C 8.890625 -15.445312 9.351562 -13.296875 10.28125 -11.390625 C 11.207031 -9.492188 12.492188 -8.003906 14.140625 -6.921875 C 15.796875 -5.835938 17.6875 -5.296875 19.8125 -5.296875 Z M 19.8125 -5.296875 "/></g></g></g><g fill="#ffffff" fill-opacity="1"><g transform="translate(598.63818, 61.840054)"><g/></g></g><g fill="#ffffff" fill-opacity="1"><g transform="translate(633.17742, 61.840054)"><g><path d="M 42.15625 -4.203125 C 42.289062 -3.796875 42.359375 -3.367188 42.359375 -2.921875 C 42.359375 -2.015625 42.050781 -1.265625 41.4375 -0.671875 C 40.820312 -0.0859375 40.109375 0.203125 39.296875 0.203125 C 38.660156 0.203125 38.082031 0.0078125 37.5625 -0.375 C 37.039062 -0.757812 36.625 -1.289062 36.3125 -1.96875 L 32.109375 -11.953125 L 11.125 -11.953125 L 6.984375 -1.90625 C 6.765625 -1.21875 6.394531 -0.691406 5.875 -0.328125 C 5.351562 0.0234375 4.773438 0.203125 4.140625 0.203125 C 3.191406 0.203125 2.46875 -0.046875 1.96875 -0.546875 C 1.46875 -1.046875 1.21875 -1.722656 1.21875 -2.578125 C 1.21875 -2.753906 1.265625 -3.117188 1.359375 -3.671875 L 18.671875 -45.609375 C 18.984375 -46.335938 19.421875 -46.894531 19.984375 -47.28125 C 20.554688 -47.664062 21.203125 -47.8125 21.921875 -47.71875 C 22.597656 -47.71875 23.207031 -47.535156 23.75 -47.171875 C 24.300781 -46.804688 24.6875 -46.285156 24.90625 -45.609375 Z M 13.703125 -18.125 L 29.53125 -18.125 L 21.578125 -37.125 Z M 13.703125 -18.125 "/></g></g></g><g fill="#ffffff" fill-opacity="1"><g transform="translate(692.47332, 61.840054)"><g><path d="M 20.296875 -36.375 C 23.867188 -36.375 26.84375 -35.804688 29.21875 -34.671875 C 31.59375 -33.546875 32.78125 -32.101562 32.78125 -30.34375 C 32.78125 -29.570312 32.53125 -28.878906 32.03125 -28.265625 C 31.539062 -27.660156 30.910156 -27.359375 30.140625 -27.359375 C 29.546875 -27.359375 29.078125 -27.445312 28.734375 -27.625 C 28.398438 -27.800781 27.941406 -28.09375 27.359375 -28.5 C 27.085938 -28.78125 26.65625 -29.097656 26.0625 -29.453125 C 25.519531 -29.722656 24.75 -29.945312 23.75 -30.125 C 22.757812 -30.3125 21.859375 -30.40625 21.046875 -30.40625 C 18.691406 -30.40625 16.609375 -29.863281 14.796875 -28.78125 C 12.984375 -27.695312 11.578125 -26.191406 10.578125 -24.265625 C 9.585938 -22.335938 9.09375 -20.195312 9.09375 -17.84375 C 9.09375 -15.445312 9.578125 -13.296875 10.546875 -11.390625 C 11.523438 -9.492188 12.894531 -8.003906 14.65625 -6.921875 C 16.425781 -5.835938 18.441406 -5.296875 20.703125 -5.296875 C 23.054688 -5.296875 24.957031 -5.65625 26.40625 -6.375 C 26.71875 -6.5625 27.144531 -6.859375 27.6875 -7.265625 C 28.144531 -7.628906 28.539062 -7.898438 28.875 -8.078125 C 29.21875 -8.253906 29.640625 -8.34375 30.140625 -8.34375 C 31.046875 -8.34375 31.757812 -8.0625 32.28125 -7.5 C 32.800781 -6.9375 33.0625 -6.203125 33.0625 -5.296875 C 33.0625 -4.347656 32.457031 -3.410156 31.25 -2.484375 C 30.050781 -1.554688 28.445312 -0.796875 26.4375 -0.203125 C 24.425781 0.378906 22.265625 0.671875 19.953125 0.671875 C 16.515625 0.671875 13.484375 -0.128906 10.859375 -1.734375 C 8.234375 -3.335938 6.207031 -5.550781 4.78125 -8.375 C 3.351562 -11.207031 2.640625 -14.363281 2.640625 -17.84375 C 2.640625 -21.332031 3.382812 -24.488281 4.875 -27.3125 C 6.375 -30.144531 8.457031 -32.363281 11.125 -33.96875 C 13.800781 -35.570312 16.859375 -36.375 20.296875 -36.375 Z M 20.296875 -36.375 "/></g></g></g><g fill="#ffffff" fill-opacity="1"><g transform="translate(743.087427, 61.840054)"><g><path d="M 33.671875 -36.046875 C 34.617188 -36.046875 35.394531 -35.738281 36 -35.125 C 36.613281 -34.507812 36.921875 -33.707031 36.921875 -32.71875 L 36.921875 -3.265625 C 36.921875 -2.359375 36.613281 -1.585938 36 -0.953125 C 35.394531 -0.316406 34.617188 0 33.671875 0 C 32.710938 0 31.9375 -0.300781 31.34375 -0.90625 C 30.757812 -1.519531 30.46875 -2.304688 30.46875 -3.265625 L 30.46875 -5.015625 C 29.300781 -3.429688 27.695312 -2.085938 25.65625 -0.984375 C 23.625 0.117188 21.429688 0.671875 19.078125 0.671875 C 15.992188 0.671875 13.195312 -0.117188 10.6875 -1.703125 C 8.175781 -3.285156 6.207031 -5.488281 4.78125 -8.3125 C 3.351562 -11.144531 2.640625 -14.320312 2.640625 -17.84375 C 2.640625 -21.375 3.351562 -24.550781 4.78125 -27.375 C 6.207031 -30.207031 8.164062 -32.414062 10.65625 -34 C 13.144531 -35.582031 15.882812 -36.375 18.875 -36.375 C 21.269531 -36.375 23.492188 -35.875 25.546875 -34.875 C 27.609375 -33.882812 29.25 -32.625 30.46875 -31.09375 L 30.46875 -32.71875 C 30.46875 -33.664062 30.757812 -34.457031 31.34375 -35.09375 C 31.9375 -35.726562 32.710938 -36.046875 33.671875 -36.046875 Z M 19.8125 -5.296875 C 21.945312 -5.296875 23.835938 -5.835938 25.484375 -6.921875 C 27.140625 -8.003906 28.429688 -9.492188 29.359375 -11.390625 C 30.285156 -13.296875 30.75 -15.445312 30.75 -17.84375 C 30.75 -20.195312 30.285156 -22.320312 29.359375 -24.21875 C 28.429688 -26.125 27.140625 -27.628906 25.484375 -28.734375 C 23.835938 -29.847656 21.945312 -30.40625 19.8125 -30.40625 C 17.6875 -30.40625 15.796875 -29.863281 14.140625 -28.78125 C 12.492188 -27.695312 11.207031 -26.203125 10.28125 -24.296875 C 9.351562 -22.398438 8.890625 -20.25 8.890625 -17.84375 C 8.890625 -15.445312 9.351562 -13.296875 10.28125 -11.390625 C 11.207031 -9.492188 12.492188 -8.003906 14.140625 -6.921875 C 15.796875 -5.835938 17.6875 -5.296875 19.8125 -5.296875 Z M 19.8125 -5.296875 "/></g></g></g><g fill="#ffffff" fill-opacity="1"><g transform="translate(800.48419, 61.840054)"><g><path d="M 33.671875 -50.234375 C 34.617188 -50.234375 35.394531 -49.925781 36 -49.3125 C 36.613281 -48.695312 36.921875 -47.914062 36.921875 -46.96875 L 36.921875 -3.265625 C 36.921875 -2.359375 36.613281 -1.585938 36 -0.953125 C 35.394531 -0.316406 34.617188 0 33.671875 0 C 32.710938 0 31.9375 -0.300781 31.34375 -0.90625 C 30.757812 -1.519531 30.46875 -2.304688 30.46875 -3.265625 L 30.46875 -5.15625 C 29.34375 -3.53125 27.75 -2.148438 25.6875 -1.015625 C 23.632812 0.109375 21.429688 0.671875 19.078125 0.671875 C 15.992188 0.671875 13.207031 -0.117188 10.71875 -1.703125 C 8.226562 -3.285156 6.257812 -5.488281 4.8125 -8.3125 C 3.363281 -11.144531 2.640625 -14.320312 2.640625 -17.84375 C 2.640625 -21.375 3.351562 -24.550781 4.78125 -27.375 C 6.207031 -30.207031 8.164062 -32.414062 10.65625 -34 C 13.144531 -35.582031 15.882812 -36.375 18.875 -36.375 C 21.269531 -36.375 23.484375 -35.875 25.515625 -34.875 C 27.554688 -33.882812 29.207031 -32.597656 30.46875 -31.015625 L 30.46875 -46.96875 C 30.46875 -47.914062 30.757812 -48.695312 31.34375 -49.3125 C 31.9375 -49.925781 32.710938 -50.234375 33.671875 -50.234375 Z M 19.8125 -5.296875 C 21.945312 -5.296875 23.835938 -5.835938 25.484375 -6.921875 C 27.140625 -8.003906 28.429688 -9.492188 29.359375 -11.390625 C 30.285156 -13.296875 30.75 -15.445312 30.75 -17.84375 C 30.75 -20.195312 30.285156 -22.335938 29.359375 -24.265625 C 28.429688 -26.191406 27.140625 -27.695312 25.484375 -28.78125 C 23.835938 -29.863281 21.945312 -30.40625 19.8125 -30.40625 C 17.6875 -30.40625 15.796875 -29.863281 14.140625 -28.78125 C 12.492188 -27.695312 11.207031 -26.191406 10.28125 -24.265625 C 9.351562 -22.335938 8.890625 -20.195312 8.890625 -17.84375 C 8.890625 -15.445312 9.351562 -13.296875 10.28125 -11.390625 C 11.207031 -9.492188 12.492188 -8.003906 14.140625 -6.921875 C 15.796875 -5.835938 17.6875 -5.296875 19.8125 -5.296875 Z M 19.8125 -5.296875 "/></g></g></g><g fill="#ffffff" fill-opacity="1"><g transform="translate(857.880953, 61.840054)"><g><path d="M 36.046875 -19.140625 C 35.992188 -18.328125 35.648438 -17.632812 35.015625 -17.0625 C 34.390625 -16.5 33.644531 -16.21875 32.78125 -16.21875 L 8.890625 -16.21875 C 9.203125 -12.914062 10.457031 -10.269531 12.65625 -8.28125 C 14.851562 -6.289062 17.535156 -5.296875 20.703125 -5.296875 C 22.867188 -5.296875 24.628906 -5.609375 25.984375 -6.234375 C 27.347656 -6.867188 28.550781 -7.6875 29.59375 -8.6875 C 30.269531 -9.09375 30.925781 -9.296875 31.5625 -9.296875 C 32.332031 -9.296875 32.976562 -9.023438 33.5 -8.484375 C 34.019531 -7.941406 34.28125 -7.304688 34.28125 -6.578125 C 34.28125 -5.628906 33.828125 -4.769531 32.921875 -4 C 31.609375 -2.6875 29.863281 -1.578125 27.6875 -0.671875 C 25.519531 0.222656 23.304688 0.671875 21.046875 0.671875 C 17.378906 0.671875 14.148438 -0.09375 11.359375 -1.625 C 8.578125 -3.164062 6.425781 -5.316406 4.90625 -8.078125 C 3.394531 -10.835938 2.640625 -13.957031 2.640625 -17.4375 C 2.640625 -21.238281 3.421875 -24.578125 4.984375 -27.453125 C 6.546875 -30.328125 8.601562 -32.53125 11.15625 -34.0625 C 13.71875 -35.601562 16.46875 -36.375 19.40625 -36.375 C 22.300781 -36.375 25.015625 -35.628906 27.546875 -34.140625 C 30.085938 -32.648438 32.125 -30.59375 33.65625 -27.96875 C 35.195312 -25.34375 35.992188 -22.398438 36.046875 -19.140625 Z M 19.40625 -30.40625 C 16.875 -30.40625 14.679688 -29.691406 12.828125 -28.265625 C 10.972656 -26.835938 9.75 -24.632812 9.15625 -21.65625 L 29.1875 -21.65625 L 29.1875 -22.1875 C 28.957031 -24.59375 27.878906 -26.5625 25.953125 -28.09375 C 24.035156 -29.632812 21.851562 -30.40625 19.40625 -30.40625 Z M 19.40625 -30.40625 "/></g></g></g><g fill="#ffffff" fill-opacity="1"><g transform="translate(912.293335, 61.840054)"><g><path d="M 45.609375 -36.171875 C 53.523438 -36.171875 57.484375 -31.238281 57.484375 -21.375 L 57.484375 -3.265625 C 57.484375 -2.304688 57.1875 -1.519531 56.59375 -0.90625 C 56.007812 -0.300781 55.242188 0 54.296875 0 C 53.347656 0 52.566406 -0.316406 51.953125 -0.953125 C 51.347656 -1.585938 51.046875 -2.359375 51.046875 -3.265625 L 51.046875 -21.3125 C 51.046875 -27.238281 48.554688 -30.203125 43.578125 -30.203125 C 41.804688 -30.203125 40.207031 -29.804688 38.78125 -29.015625 C 37.363281 -28.222656 36.257812 -27.144531 35.46875 -25.78125 C 34.675781 -24.425781 34.28125 -22.9375 34.28125 -21.3125 L 34.28125 -3.265625 C 34.28125 -2.359375 33.972656 -1.585938 33.359375 -0.953125 C 32.742188 -0.316406 31.960938 0 31.015625 0 C 30.066406 0 29.296875 -0.300781 28.703125 -0.90625 C 28.117188 -1.519531 27.828125 -2.304688 27.828125 -3.265625 L 27.828125 -21.375 C 27.828125 -24.050781 27.257812 -26.191406 26.125 -27.796875 C 25 -29.398438 23.125 -30.203125 20.5 -30.203125 C 17.832031 -30.203125 15.625 -29.351562 13.875 -27.65625 C 12.132812 -25.957031 11.265625 -23.863281 11.265625 -21.375 L 11.265625 -3.265625 C 11.265625 -2.359375 10.957031 -1.585938 10.34375 -0.953125 C 9.738281 -0.316406 8.960938 0 8.015625 0 C 7.054688 0 6.28125 -0.300781 5.6875 -0.90625 C 5.101562 -1.519531 4.8125 -2.304688 4.8125 -3.265625 L 4.8125 -32.3125 C 4.8125 -33.21875 5.117188 -33.984375 5.734375 -34.609375 C 6.347656 -35.242188 7.109375 -35.5625 8.015625 -35.5625 C 8.960938 -35.5625 9.738281 -35.242188 10.34375 -34.609375 C 10.957031 -33.984375 11.265625 -33.21875 11.265625 -32.3125 L 11.265625 -29.9375 C 12.441406 -31.695312 14.015625 -33.175781 15.984375 -34.375 C 17.953125 -35.570312 20.09375 -36.171875 22.40625 -36.171875 C 28.007812 -36.171875 31.648438 -33.6875 33.328125 -28.71875 C 34.316406 -30.613281 35.96875 -32.328125 38.28125 -33.859375 C 40.59375 -35.398438 43.035156 -36.171875 45.609375 -36.171875 Z M 45.609375 -36.171875 "/></g></g></g><g fill="#ffffff" fill-opacity="1"><g transform="translate(990.309335, 61.840054)"><g><path d="M 10.921875 -3.265625 C 10.921875 -2.359375 10.613281 -1.585938 10 -0.953125 C 9.394531 -0.316406 8.617188 0 7.671875 0 C 6.765625 0 6.003906 -0.316406 5.390625 -0.953125 C 4.785156 -1.585938 4.484375 -2.359375 4.484375 -3.265625 L 4.484375 -32.640625 C 4.484375 -33.546875 4.785156 -34.316406 5.390625 -34.953125 C 6.003906 -35.585938 6.765625 -35.90625 7.671875 -35.90625 C 8.617188 -35.90625 9.394531 -35.585938 10 -34.953125 C 10.613281 -34.316406 10.921875 -33.546875 10.921875 -32.640625 Z M 7.671875 -40.390625 C 6.359375 -40.390625 5.421875 -40.625 4.859375 -41.09375 C 4.296875 -41.570312 4.015625 -42.332031 4.015625 -43.375 L 4.015625 -44.453125 C 4.015625 -45.546875 4.316406 -46.316406 4.921875 -46.765625 C 5.535156 -47.210938 6.476562 -47.4375 7.75 -47.4375 C 9.007812 -47.4375 9.921875 -47.195312 10.484375 -46.71875 C 11.054688 -46.25 11.34375 -45.492188 11.34375 -44.453125 L 11.34375 -43.375 C 11.34375 -42.289062 11.046875 -41.519531 10.453125 -41.0625 C 9.867188 -40.613281 8.941406 -40.390625 7.671875 -40.390625 Z M 7.671875 -40.390625 "/></g></g></g><g fill="#ffffff" fill-opacity="1"><g transform="translate(1021.457248, 61.840054)"><g><path d="M 20.296875 -36.375 C 23.867188 -36.375 26.84375 -35.804688 29.21875 -34.671875 C 31.59375 -33.546875 32.78125 -32.101562 32.78125 -30.34375 C 32.78125 -29.570312 32.53125 -28.878906 32.03125 -28.265625 C 31.539062 -27.660156 30.910156 -27.359375 30.140625 -27.359375 C 29.546875 -27.359375 29.078125 -27.445312 28.734375 -27.625 C 28.398438 -27.800781 27.941406 -28.09375 27.359375 -28.5 C 27.085938 -28.78125 26.65625 -29.097656 26.0625 -29.453125 C 25.519531 -29.722656 24.75 -29.945312 23.75 -30.125 C 22.757812 -30.3125 21.859375 -30.40625 21.046875 -30.40625 C 18.691406 -30.40625 16.609375 -29.863281 14.796875 -28.78125 C 12.984375 -27.695312 11.578125 -26.191406 10.578125 -24.265625 C 9.585938 -22.335938 9.09375 -20.195312 9.09375 -17.84375 C 9.09375 -15.445312 9.578125 -13.296875 10.546875 -11.390625 C 11.523438 -9.492188 12.894531 -8.003906 14.65625 -6.921875 C 16.425781 -5.835938 18.441406 -5.296875 20.703125 -5.296875 C 23.054688 -5.296875 24.957031 -5.65625 26.40625 -6.375 C 26.71875 -6.5625 27.144531 -6.859375 27.6875 -7.265625 C 28.144531 -7.628906 28.539062 -7.898438 28.875 -8.078125 C 29.21875 -8.253906 29.640625 -8.34375 30.140625 -8.34375 C 31.046875 -8.34375 31.757812 -8.0625 32.28125 -7.5 C 32.800781 -6.9375 33.0625 -6.203125 33.0625 -5.296875 C 33.0625 -4.347656 32.457031 -3.410156 31.25 -2.484375 C 30.050781 -1.554688 28.445312 -0.796875 26.4375 -0.203125 C 24.425781 0.378906 22.265625 0.671875 19.953125 0.671875 C 16.515625 0.671875 13.484375 -0.128906 10.859375 -1.734375 C 8.234375 -3.335938 6.207031 -5.550781 4.78125 -8.375 C 3.351562 -11.207031 2.640625 -14.363281 2.640625 -17.84375 C 2.640625 -21.332031 3.382812 -24.488281 4.875 -27.3125 C 6.375 -30.144531 8.457031 -32.363281 11.125 -33.96875 C 13.800781 -35.570312 16.859375 -36.375 20.296875 -36.375 Z M 20.296875 -36.375 "/></g></g></g><g fill="#ffffff" fill-opacity="1"><g transform="translate(1072.071356, 61.840054)"><g/></g></g><g fill="#ffffff" fill-opacity="1"><g transform="translate(1106.610596, 61.840054)"><g><path d="M 32.84375 -25.921875 C 35.332031 -25.066406 37.378906 -23.65625 38.984375 -21.6875 C 40.597656 -19.71875 41.40625 -17.148438 41.40625 -13.984375 C 41.40625 -8.960938 39.941406 -5.375 37.015625 -3.21875 C 34.097656 -1.070312 30.535156 0 26.328125 0 L 8.890625 0 C 7.984375 0 7.210938 -0.316406 6.578125 -0.953125 C 5.953125 -1.585938 5.640625 -2.359375 5.640625 -3.265625 L 5.640625 -44.25 C 5.640625 -45.15625 5.953125 -45.925781 6.578125 -46.5625 C 7.210938 -47.195312 7.984375 -47.515625 8.890625 -47.515625 L 26.328125 -47.515625 C 30.453125 -47.515625 33.585938 -46.492188 35.734375 -44.453125 C 37.878906 -42.421875 38.953125 -39.484375 38.953125 -35.640625 C 38.953125 -33.460938 38.429688 -31.523438 37.390625 -29.828125 C 36.359375 -28.128906 34.84375 -26.828125 32.84375 -25.921875 Z M 31.96875 -34.609375 C 31.96875 -36.742188 31.390625 -38.363281 30.234375 -39.46875 C 29.078125 -40.570312 27.460938 -41.125 25.390625 -41.125 L 12.5625 -41.125 L 12.5625 -27.890625 L 25.515625 -27.890625 C 27.367188 -27.941406 28.90625 -28.539062 30.125 -29.6875 C 31.351562 -30.84375 31.96875 -32.484375 31.96875 -34.609375 Z M 26.265625 -6.25 C 28.753906 -6.25 30.742188 -6.890625 32.234375 -8.171875 C 33.734375 -9.460938 34.484375 -11.398438 34.484375 -13.984375 C 34.484375 -19.003906 31.628906 -21.515625 25.921875 -21.515625 L 12.5625 -21.515625 L 12.5625 -6.25 Z M 26.265625 -6.25 "/></g></g></g><g fill="#ffffff" fill-opacity="1"><g transform="translate(1166.652591, 61.840054)"><g><path d="M 38.484375 -17.78125 C 38.484375 -14.25 37.691406 -11.082031 36.109375 -8.28125 C 34.523438 -5.476562 32.363281 -3.285156 29.625 -1.703125 C 26.882812 -0.117188 23.863281 0.671875 20.5625 0.671875 C 17.257812 0.671875 14.238281 -0.117188 11.5 -1.703125 C 8.757812 -3.285156 6.597656 -5.476562 5.015625 -8.28125 C 3.429688 -11.082031 2.640625 -14.25 2.640625 -17.78125 C 2.640625 -21.3125 3.429688 -24.5 5.015625 -27.34375 C 6.597656 -30.195312 8.757812 -32.414062 11.5 -34 C 14.238281 -35.582031 17.257812 -36.375 20.5625 -36.375 C 23.863281 -36.375 26.882812 -35.582031 29.625 -34 C 32.363281 -32.414062 34.523438 -30.195312 36.109375 -27.34375 C 37.691406 -24.5 38.484375 -21.3125 38.484375 -17.78125 Z M 32.03125 -17.78125 C 32.03125 -20.226562 31.519531 -22.410156 30.5 -24.328125 C 29.488281 -26.253906 28.109375 -27.75 26.359375 -28.8125 C 24.617188 -29.875 22.6875 -30.40625 20.5625 -30.40625 C 18.4375 -30.40625 16.503906 -29.875 14.765625 -28.8125 C 13.023438 -27.75 11.644531 -26.253906 10.625 -24.328125 C 9.601562 -22.410156 9.09375 -20.226562 9.09375 -17.78125 C 9.09375 -15.382812 9.601562 -13.234375 10.625 -11.328125 C 11.644531 -9.429688 13.023438 -7.953125 14.765625 -6.890625 C 16.503906 -5.828125 18.4375 -5.296875 20.5625 -5.296875 C 22.6875 -5.296875 24.617188 -5.828125 26.359375 -6.890625 C 28.109375 -7.953125 29.488281 -9.429688 30.5 -11.328125 C 31.519531 -13.234375 32.03125 -15.382812 32.03125 -17.78125 Z M 32.03125 -17.78125 "/></g></g></g><g fill="#ffffff" fill-opacity="1"><g transform="translate(1223.506732, 61.840054)"><g><path d="M 14.453125 -29.25 L 14.453125 -9.03125 C 14.453125 -6.769531 15.472656 -5.640625 17.515625 -5.640625 C 17.828125 -5.640625 18.253906 -5.71875 18.796875 -5.875 C 19.335938 -6.03125 19.769531 -6.109375 20.09375 -6.109375 C 20.675781 -6.109375 21.171875 -5.859375 21.578125 -5.359375 C 21.984375 -4.859375 22.1875 -4.226562 22.1875 -3.46875 C 22.1875 -2.507812 21.644531 -1.691406 20.5625 -1.015625 C 19.476562 -0.335938 18.257812 0 16.90625 0 C 15.40625 0 14.03125 -0.15625 12.78125 -0.46875 C 11.539062 -0.789062 10.4375 -1.59375 9.46875 -2.875 C 8.5 -4.164062 8.015625 -6.125 8.015625 -8.75 L 8.015625 -29.25 L 4.078125 -29.25 C 3.210938 -29.25 2.5 -29.53125 1.9375 -30.09375 C 1.375 -30.664062 1.09375 -31.378906 1.09375 -32.234375 C 1.09375 -33.097656 1.375 -33.800781 1.9375 -34.34375 C 2.5 -34.882812 3.210938 -35.15625 4.078125 -35.15625 L 8.015625 -35.15625 L 8.015625 -40.859375 C 8.015625 -41.765625 8.316406 -42.535156 8.921875 -43.171875 C 9.535156 -43.804688 10.316406 -44.125 11.265625 -44.125 C 12.171875 -44.125 12.925781 -43.804688 13.53125 -43.171875 C 14.144531 -42.535156 14.453125 -41.765625 14.453125 -40.859375 L 14.453125 -35.15625 L 20.09375 -35.15625 C 20.945312 -35.15625 21.65625 -34.875 22.21875 -34.3125 C 22.789062 -33.75 23.078125 -33.035156 23.078125 -32.171875 C 23.078125 -31.316406 22.789062 -30.613281 22.21875 -30.0625 C 21.65625 -29.519531 20.945312 -29.25 20.09375 -29.25 Z M 14.453125 -29.25 "/></g></g></g></g></g></g><g fill="#ffffff" fill-opacity="1"><g transform="translate(33.78759, 303.610158)"><g><path d="M 175.105469 -32.167969 L 62.601562 -32.167969 L 62.601562 -70.164062 L 100.597656 -70.164062 C 100.597656 -69.78125 100.601562 -69.550781 100.617188 -69.480469 C 100.527344 -69.96875 100.339844 -70.53125 100.058594 -71.179688 C 99.125 -73.3125 97.71875 -75.074219 95.84375 -76.46875 C 96.203125 -76.203125 96.429688 -76.050781 96.523438 -76.019531 C 96.371094 -76.074219 96.253906 -76.101562 96.171875 -76.101562 C 98.378906 -76.101562 100.148438 -76.210938 101.480469 -76.4375 C 101.734375 -76.480469 101.890625 -76.511719 101.953125 -76.53125 C 101.65625 -76.441406 101.289062 -76.300781 100.859375 -76.101562 C 100.527344 -75.949219 100.292969 -75.828125 100.164062 -75.746094 C 100.402344 -75.898438 100.722656 -76.132812 101.125 -76.457031 C 102.589844 -77.625 104.316406 -79.269531 106.308594 -81.382812 L 125.683594 -101.96875 L 226.292969 -51.664062 L 205.308594 -16.511719 C 193.46875 3.320312 177.554688 18.269531 157.570312 28.335938 C 138.789062 37.800781 117.011719 42.53125 92.242188 42.53125 C 75.675781 42.53125 60.113281 39.621094 45.558594 33.808594 C 30.957031 27.976562 17.699219 19.347656 5.777344 7.929688 C -6.277344 -3.617188 -15.414062 -16.558594 -21.628906 -30.898438 C -27.902344 -45.371094 -31.039062 -60.878906 -31.039062 -77.421875 C -31.039062 -93.953125 -27.90625 -109.460938 -21.644531 -123.949219 C -15.445312 -138.289062 -6.332031 -151.253906 5.691406 -162.84375 C 17.609375 -174.332031 30.875 -183.011719 45.484375 -188.886719 C 60.058594 -194.746094 75.644531 -197.675781 92.242188 -197.675781 C 108.902344 -197.675781 124.292969 -195.167969 138.414062 -190.15625 C 153.296875 -184.867188 166.5 -176.917969 178.019531 -166.300781 C 190.125 -155.144531 199.167969 -141.695312 205.144531 -125.949219 C 210.648438 -111.449219 213.402344 -95.273438 213.402344 -77.421875 C 213.402344 -71.695312 213.128906 -67.195312 212.582031 -63.917969 L 207.292969 -32.167969 Z M 175.105469 -108.15625 L 175.105469 -70.164062 L 137.628906 -76.410156 C 137.507812 -75.6875 137.425781 -75.035156 137.375 -74.453125 L 137.371094 -74.46875 C 137.402344 -75.148438 137.414062 -76.132812 137.414062 -77.421875 C 137.414062 -92.730469 133.785156 -103.730469 126.523438 -110.421875 C 118.375 -117.933594 106.945312 -121.6875 92.242188 -121.6875 C 85.449219 -121.6875 79.308594 -120.585938 73.824219 -118.382812 C 68.371094 -116.191406 63.238281 -112.773438 58.425781 -108.132812 C 53.714844 -103.59375 50.273438 -98.8125 48.105469 -93.796875 C 46 -88.929688 44.949219 -83.472656 44.949219 -77.421875 C 44.949219 -71.382812 45.996094 -65.949219 48.089844 -61.117188 C 50.242188 -56.148438 53.660156 -51.425781 58.339844 -46.945312 C 63.152344 -42.335938 68.289062 -38.9375 73.75 -36.757812 C 79.253906 -34.558594 85.417969 -33.457031 92.242188 -33.457031 C 104.972656 -33.457031 115.351562 -35.480469 123.386719 -39.527344 C 130.214844 -42.96875 135.773438 -48.28125 140.066406 -55.464844 L 172.6875 -35.988281 L 155.695312 -2.007812 L 116.984375 -21.363281 L 133.976562 -55.34375 L 161.644531 -29.304688 C 151.8125 -18.859375 142.136719 -11.445312 132.617188 -7.066406 C 122.535156 -2.429688 110.386719 -0.113281 96.171875 -0.113281 C 79.527344 -0.113281 64.3125 -5.230469 50.53125 -15.46875 C 41.601562 -22.105469 34.902344 -30.523438 30.441406 -40.722656 C 26.554688 -49.605469 24.609375 -59.421875 24.609375 -70.164062 L 24.609375 -108.15625 Z M 64.113281 -137.796875 L 123.089844 -137.796875 L 123.089844 -99.800781 L 85.515625 -94.164062 C 85.5 -94.28125 85.480469 -94.371094 85.46875 -94.4375 C 85.46875 -94.421875 85.480469 -94.390625 85.496094 -94.335938 C 85.601562 -93.992188 85.765625 -93.609375 85.984375 -93.179688 C 86.71875 -91.746094 87.746094 -90.46875 89.070312 -89.355469 C 90.257812 -88.351562 91.535156 -87.628906 92.90625 -87.179688 C 93.308594 -87.046875 93.667969 -86.957031 93.972656 -86.910156 C 94.015625 -86.90625 94.039062 -86.902344 94.042969 -86.902344 C 93.96875 -86.90625 93.871094 -86.910156 93.753906 -86.910156 C 93.367188 -86.910156 93.089844 -86.898438 92.914062 -86.871094 C 93.09375 -86.898438 93.34375 -86.964844 93.667969 -87.070312 C 95.101562 -87.539062 96.464844 -88.347656 97.757812 -89.488281 C 99.078125 -90.660156 100.148438 -92.117188 100.964844 -93.867188 C 101.625 -95.289062 101.988281 -96.582031 102.054688 -97.75 L 64.113281 -99.800781 Z M 64.113281 -61.808594 L 24.011719 -61.808594 L 26.175781 -101.851562 C 26.644531 -110.480469 28.621094 -118.53125 32.105469 -126 C 35.742188 -133.796875 40.84375 -140.597656 47.410156 -146.40625 C 59.839844 -157.398438 75.285156 -162.898438 93.753906 -162.898438 C 111.070312 -162.898438 125.835938 -157.746094 138.050781 -147.449219 C 144.519531 -141.996094 149.707031 -135.453125 153.617188 -127.820312 C 157.09375 -121.03125 159.441406 -113.570312 160.660156 -105.4375 L 167.207031 -61.808594 Z M 64.113281 -61.808594 "/></g></g></g><g fill="#ffffff" fill-opacity="1"><g transform="translate(216.151895, 303.610158)"><g><path d="M 0.730469 6.476562 C -9.859375 -5.066406 -17.832031 -18 -23.1875 -32.320312 C -28.421875 -46.3125 -31.039062 -61.347656 -31.039062 -77.421875 C -31.039062 -93.484375 -28.425781 -108.523438 -23.199219 -122.53125 C -17.855469 -136.847656 -9.90625 -149.800781 0.648438 -161.382812 C 11.582031 -173.378906 24.164062 -182.449219 38.394531 -188.589844 C 52.425781 -194.648438 67.652344 -197.675781 84.074219 -197.675781 C 99.019531 -197.675781 112.902344 -195.234375 125.726562 -190.347656 C 139.066406 -185.265625 150.9375 -177.683594 161.332031 -167.601562 L 134.882812 -140.328125 L 96.890625 -140.328125 L 96.890625 -298.082031 L 226.40625 -298.082031 L 226.40625 37.992188 L 97.496094 37.992188 L 97.496094 -17.539062 L 135.488281 -17.539062 L 135.488281 20.453125 L 134.882812 20.453125 L 134.882812 -17.539062 L 163.066406 7.941406 C 152.742188 19.359375 140.832031 28 127.34375 33.863281 C 114.046875 39.640625 99.625 42.53125 84.074219 42.53125 C 67.683594 42.53125 52.480469 39.527344 38.476562 33.519531 C 24.25 27.414062 11.667969 18.402344 0.730469 6.476562 Z M 56.730469 -44.886719 C 60.308594 -40.984375 64.210938 -38.125 68.433594 -36.316406 C 72.875 -34.410156 78.089844 -33.457031 84.074219 -33.457031 C 89.09375 -33.457031 93.421875 -34.246094 97.058594 -35.828125 C 100.503906 -37.328125 103.71875 -39.722656 106.699219 -43.019531 L 118.015625 -55.535156 L 173.480469 -55.535156 L 173.480469 0 L 135.488281 0 L 135.488281 -37.992188 L 188.414062 -37.992188 L 188.414062 0 L 150.417969 0 L 150.417969 -260.089844 L 188.414062 -260.089844 L 188.414062 -222.09375 L 134.882812 -222.09375 L 134.882812 -260.089844 L 172.878906 -260.089844 L 172.878906 -50.5625 L 108.433594 -113.050781 C 105.523438 -115.875 102.269531 -117.96875 98.675781 -119.339844 C 94.5625 -120.90625 89.695312 -121.6875 84.074219 -121.6875 C 78.117188 -121.6875 72.929688 -120.734375 68.511719 -118.828125 C 64.296875 -117.007812 60.394531 -114.128906 56.8125 -110.199219 C 52.851562 -105.855469 49.914062 -101.113281 47.996094 -95.972656 C 45.964844 -90.527344 44.949219 -84.34375 44.949219 -77.421875 C 44.949219 -70.511719 45.960938 -64.351562 47.984375 -58.9375 C 49.886719 -53.851562 52.804688 -49.167969 56.730469 -44.886719 Z M 100.914062 -76.671875 C 101.238281 -76.988281 101.511719 -77.433594 101.738281 -78.007812 C 101.808594 -78.1875 101.851562 -78.3125 101.867188 -78.390625 C 101.824219 -78.171875 101.804688 -77.847656 101.804688 -77.421875 C 101.804688 -76.90625 101.832031 -76.496094 101.882812 -76.195312 L 101.886719 -76.164062 C 101.867188 -76.234375 101.839844 -76.316406 101.804688 -76.410156 C 101.574219 -77.011719 101.261719 -77.519531 100.859375 -77.925781 C 100.347656 -78.445312 99.730469 -78.84375 99.011719 -79.121094 C 98.90625 -79.160156 98.8125 -79.191406 98.734375 -79.214844 L 98.769531 -79.207031 C 99.097656 -79.152344 99.542969 -79.125 100.105469 -79.125 C 100.472656 -79.125 100.738281 -79.140625 100.90625 -79.167969 C 100.78125 -79.148438 100.609375 -79.09375 100.390625 -79.003906 C 99.753906 -78.753906 99.257812 -78.441406 98.898438 -78.078125 C 98.609375 -77.789062 98.363281 -77.375 98.15625 -76.847656 C 98.09375 -76.683594 98.054688 -76.566406 98.042969 -76.496094 C 98.082031 -76.707031 98.097656 -77.015625 98.097656 -77.421875 C 98.097656 -77.847656 98.078125 -78.171875 98.039062 -78.390625 C 98.054688 -78.3125 98.097656 -78.1875 98.167969 -78.007812 C 98.394531 -77.433594 98.667969 -76.988281 98.992188 -76.671875 C 99.128906 -76.535156 99.421875 -76.378906 99.871094 -76.199219 C 100.101562 -76.105469 100.308594 -76.042969 100.484375 -76.007812 C 100.4375 -76.015625 100.308594 -76.023438 100.105469 -76.023438 C 99.8125 -76.023438 99.605469 -76.011719 99.484375 -75.988281 C 99.609375 -76.011719 99.769531 -76.0625 99.96875 -76.140625 C 100.421875 -76.320312 100.738281 -76.5 100.914062 -76.671875 Z M 47.578125 -130.792969 C 54.707031 -137.820312 62.8125 -143.140625 71.886719 -146.75 C 80.707031 -150.257812 90.109375 -152.007812 100.105469 -152.007812 C 110.050781 -152.007812 119.425781 -150.238281 128.234375 -146.691406 C 137.203125 -143.082031 145.234375 -137.785156 152.328125 -130.792969 C 159.605469 -123.621094 165.097656 -115.363281 168.800781 -106.019531 C 172.324219 -97.136719 174.085938 -87.605469 174.085938 -77.421875 C 174.085938 -67.421875 172.378906 -58.035156 168.960938 -49.265625 C 165.378906 -40.066406 160.066406 -31.894531 153.027344 -24.746094 C 145.910156 -17.527344 137.726562 -12.078125 128.472656 -8.394531 C 119.652344 -4.890625 110.199219 -3.136719 100.105469 -3.136719 C 89.953125 -3.136719 80.488281 -4.828125 71.707031 -8.207031 C 62.21875 -11.859375 53.890625 -17.324219 46.726562 -24.597656 C 39.671875 -31.761719 34.367188 -40.003906 30.808594 -49.324219 C 27.480469 -58.046875 25.820312 -67.410156 25.820312 -77.421875 C 25.820312 -87.605469 27.582031 -97.136719 31.101562 -106.019531 C 34.808594 -115.363281 40.300781 -123.621094 47.578125 -130.792969 Z M 47.578125 -130.792969 "/></g></g></g><g fill="#ffffff" fill-opacity="1"><g transform="translate(422.71048, 303.610158)"><g><path d="M 106.644531 -155.144531 L 106.644531 -81.351562 C 106.644531 -76.359375 106.945312 -72.445312 107.550781 -69.609375 C 107.675781 -69.019531 107.769531 -68.652344 107.824219 -68.507812 C 107.550781 -69.195312 107.09375 -69.980469 106.457031 -70.867188 C 104.539062 -73.535156 102.1875 -75.441406 99.402344 -76.582031 C 98.773438 -76.84375 98.257812 -77.003906 97.859375 -77.074219 C 98.121094 -77.027344 98.566406 -77.007812 99.195312 -77.007812 C 99.828125 -77.007812 100.273438 -77.027344 100.535156 -77.074219 C 100.136719 -77.003906 99.621094 -76.84375 98.988281 -76.582031 C 96.203125 -75.441406 93.851562 -73.535156 91.933594 -70.867188 C 91.296875 -69.980469 90.84375 -69.195312 90.566406 -68.507812 C 90.625 -68.652344 90.71875 -69.019531 90.84375 -69.609375 C 91.445312 -72.445312 91.75 -76.359375 91.75 -81.351562 L 91.75 -193.140625 L 221.265625 -193.140625 L 221.265625 -68.347656 C 221.265625 -51.019531 218.839844 -35.625 213.988281 -22.160156 C 208.347656 -6.515625 199.605469 6.339844 187.761719 16.402344 C 167.261719 33.820312 137.738281 42.53125 99.195312 42.53125 C 60.65625 42.53125 31.132812 33.820312 10.632812 16.402344 C -1.210938 6.339844 -9.953125 -6.515625 -15.59375 -22.160156 C -20.445312 -35.625 -22.871094 -51.019531 -22.871094 -68.347656 L -22.871094 -193.140625 L 106.644531 -193.140625 Z M 30.65625 -155.144531 L 68.652344 -155.144531 L 68.652344 -117.152344 L 15.121094 -117.152344 L 15.121094 -155.144531 L 53.113281 -155.144531 L 53.113281 -68.347656 C 53.113281 -59.871094 54.039062 -53.0625 55.890625 -47.925781 C 56.957031 -44.972656 58.269531 -42.832031 59.832031 -41.503906 C 62.1875 -39.503906 65.9375 -37.816406 71.085938 -36.441406 C 78.535156 -34.453125 87.902344 -33.457031 99.195312 -33.457031 C 110.488281 -33.457031 119.859375 -34.453125 127.308594 -36.441406 C 132.453125 -37.816406 136.207031 -39.503906 138.558594 -41.503906 C 140.121094 -42.832031 141.4375 -44.972656 142.5 -47.925781 C 144.351562 -53.0625 145.277344 -59.871094 145.277344 -68.347656 L 145.277344 -155.144531 L 183.273438 -155.144531 L 183.273438 -117.152344 L 129.742188 -117.152344 L 129.742188 -155.144531 L 167.734375 -155.144531 L 167.734375 -81.351562 C 167.734375 -71.023438 166.878906 -61.835938 165.164062 -53.78125 C 162.898438 -43.144531 159.054688 -34.054688 153.636719 -26.515625 C 147.082031 -17.394531 138.480469 -10.652344 127.832031 -6.28125 C 119.28125 -2.773438 109.734375 -1.019531 99.195312 -1.019531 C 88.660156 -1.019531 79.113281 -2.773438 70.5625 -6.28125 C 59.914062 -10.652344 51.3125 -17.394531 44.753906 -26.515625 C 39.335938 -34.054688 35.496094 -43.144531 33.230469 -53.78125 C 31.515625 -61.835938 30.65625 -71.023438 30.65625 -81.351562 Z M 30.65625 -155.144531 "/></g></g></g><g fill="#0070c0" fill-opacity="1"><g transform="translate(33.78759, 303.610158)"><g><path d="M 175.109375 -70.15625 L 62.59375 -70.15625 C 62.59375 -59.269531 66.117188 -51.207031 73.171875 -45.96875 C 80.234375 -40.726562 87.898438 -38.109375 96.171875 -38.109375 C 104.835938 -38.109375 111.691406 -39.265625 116.734375 -41.578125 C 121.773438 -43.898438 127.519531 -48.488281 133.96875 -55.34375 L 172.6875 -35.984375 C 156.550781 -8.972656 129.734375 4.53125 92.234375 4.53125 C 68.847656 4.53125 48.785156 -3.476562 32.046875 -19.5 C 15.316406 -35.53125 6.953125 -54.835938 6.953125 -77.421875 C 6.953125 -100.003906 15.316406 -119.359375 32.046875 -135.484375 C 48.785156 -151.609375 68.847656 -159.671875 92.234375 -159.671875 C 116.835938 -159.671875 136.847656 -152.5625 152.265625 -138.34375 C 167.691406 -124.132812 175.40625 -103.828125 175.40625 -77.421875 C 175.40625 -73.785156 175.304688 -71.363281 175.109375 -70.15625 Z M 64.109375 -99.796875 L 123.078125 -99.796875 C 121.867188 -107.859375 118.691406 -114.054688 113.546875 -118.390625 C 108.410156 -122.734375 101.8125 -124.90625 93.75 -124.90625 C 84.875 -124.90625 77.816406 -122.582031 72.578125 -117.9375 C 67.335938 -113.300781 64.515625 -107.253906 64.109375 -99.796875 Z M 64.109375 -99.796875 "/></g></g></g><g fill="#0070c0" fill-opacity="1"><g transform="translate(216.151895, 303.610158)"><g><path d="M 28.71875 -19.203125 C 14.207031 -35.023438 6.953125 -54.425781 6.953125 -77.40625 C 6.953125 -100.394531 14.207031 -119.851562 28.71875 -135.78125 C 43.238281 -151.707031 61.691406 -159.671875 84.078125 -159.671875 C 104.640625 -159.671875 121.570312 -153.222656 134.875 -140.328125 L 134.875 -260.078125 L 188.40625 -260.078125 L 188.40625 0 L 135.484375 0 L 135.484375 -17.546875 L 134.875 -17.546875 C 121.570312 -2.828125 104.640625 4.53125 84.078125 4.53125 C 61.691406 4.53125 43.238281 -3.378906 28.71875 -19.203125 Z M 74.234375 -103.734375 C 67.285156 -96.878906 63.8125 -88.109375 63.8125 -77.421875 C 63.8125 -66.734375 67.132812 -58.007812 73.78125 -51.25 C 80.4375 -44.5 89.210938 -41.125 100.109375 -41.125 C 110.585938 -41.125 119.203125 -44.550781 125.953125 -51.40625 C 132.710938 -58.257812 136.09375 -66.929688 136.09375 -77.421875 C 136.09375 -88.109375 132.613281 -96.878906 125.65625 -103.734375 C 118.695312 -110.585938 110.179688 -114.015625 100.109375 -114.015625 C 89.816406 -114.015625 81.191406 -110.585938 74.234375 -103.734375 Z M 74.234375 -103.734375 "/></g></g></g><g fill="#0070c0" fill-opacity="1"><g transform="translate(422.71048, 303.610158)"><g><path d="M 68.65625 -155.140625 L 68.65625 -81.34375 C 68.65625 -66.03125 70.972656 -55.144531 75.609375 -48.6875 C 80.242188 -42.238281 88.101562 -39.015625 99.1875 -39.015625 C 110.28125 -39.015625 118.144531 -42.238281 122.78125 -48.6875 C 127.414062 -55.144531 129.734375 -66.03125 129.734375 -81.34375 L 129.734375 -155.140625 L 183.265625 -155.140625 L 183.265625 -68.34375 C 183.265625 -42.539062 176.5625 -23.941406 163.15625 -12.546875 C 149.75 -1.160156 128.425781 4.53125 99.1875 4.53125 C 69.957031 4.53125 48.640625 -1.160156 35.234375 -12.546875 C 21.828125 -23.941406 15.125 -42.539062 15.125 -68.34375 L 15.125 -155.140625 Z M 68.65625 -155.140625 "/></g></g></g></g></g></svg>